<svg xmlns="http://www.w3.org/2000/svg" xmlns:xlink="http://www.w3.org/1999/xlink" width="2000" zoomAndPan="magnify" viewBox="0 0 1500 1499.999933" height="2000" preserveAspectRatio="xMidYMid meet" version="1.0"><defs><g/><clipPath id="b565c46e88"><path d="M 216.910156 216.910156 L 1283.089844 216.910156 L 1283.089844 1283.089844 L 216.910156 1283.089844 Z M 216.910156 216.910156 " clip-rule="nonzero"/></clipPath><clipPath id="0b0fec8371"><path d="M 750 216.910156 C 455.582031 216.910156 216.910156 455.582031 216.910156 750 C 216.910156 1044.417969 455.582031 1283.089844 750 1283.089844 C 1044.417969 1283.089844 1283.089844 1044.417969 1283.089844 750 C 1283.089844 455.582031 1044.417969 216.910156 750 216.910156 Z M 750 216.910156 " clip-rule="nonzero"/></clipPath><clipPath id="3735021531"><path d="M 0.910156 0.910156 L 1067.089844 0.910156 L 1067.089844 1067.089844 L 0.910156 1067.089844 Z M 0.910156 0.910156 " clip-rule="nonzero"/></clipPath><clipPath id="27dffd2d9a"><path d="M 534 0.910156 C 239.582031 0.910156 0.910156 239.582031 0.910156 534 C 0.910156 828.417969 239.582031 1067.089844 534 1067.089844 C 828.417969 1067.089844 1067.089844 828.417969 1067.089844 534 C 1067.089844 239.582031 828.417969 0.910156 534 0.910156 Z M 534 0.910156 " clip-rule="nonzero"/></clipPath><clipPath id="364aed99bb"><rect x="0" width="1068" y="0" height="1068"/></clipPath><clipPath id="724a1db64c"><path d="M 216.910156 216.910156 L 1283.082031 216.910156 L 1283.082031 1283.082031 L 216.910156 1283.082031 Z M 216.910156 216.910156 " clip-rule="nonzero"/></clipPath><clipPath id="9821e61bbb"><path d="M 749.996094 216.910156 C 455.582031 216.910156 216.910156 455.582031 216.910156 749.996094 C 216.910156 1044.414062 455.582031 1283.082031 749.996094 1283.082031 C 1044.414062 1283.082031 1283.082031 1044.414062 1283.082031 749.996094 C 1283.082031 455.582031 1044.414062 216.910156 749.996094 216.910156 Z M 749.996094 216.910156 " clip-rule="nonzero"/></clipPath><clipPath id="cae6e182a2"><path d="M 297.085938 739.519531 L 318.042969 739.519531 L 318.042969 760.476562 L 297.085938 760.476562 Z M 297.085938 739.519531 " clip-rule="nonzero"/></clipPath><clipPath id="988cc8af7b"><path d="M 307.566406 739.519531 C 301.777344 739.519531 297.085938 744.210938 297.085938 750 C 297.085938 755.785156 301.777344 760.476562 307.566406 760.476562 C 313.351562 760.476562 318.042969 755.785156 318.042969 750 C 318.042969 744.210938 313.351562 739.519531 307.566406 739.519531 Z M 307.566406 739.519531 " clip-rule="nonzero"/></clipPath><clipPath id="3766a1c7c5"><path d="M 0.0859375 0.519531 L 21.042969 0.519531 L 21.042969 21.476562 L 0.0859375 21.476562 Z M 0.0859375 0.519531 " clip-rule="nonzero"/></clipPath><clipPath id="c862d0918a"><path d="M 10.566406 0.519531 C 4.777344 0.519531 0.0859375 5.210938 0.0859375 11 C 0.0859375 16.785156 4.777344 21.476562 10.566406 21.476562 C 16.351562 21.476562 21.042969 16.785156 21.042969 11 C 21.042969 5.210938 16.351562 0.519531 10.566406 0.519531 Z M 10.566406 0.519531 " clip-rule="nonzero"/></clipPath><clipPath id="d34b82ce5a"><rect x="0" width="22" y="0" height="22"/></clipPath><clipPath id="7fc630e0e8"><path d="M 1180.546875 739.519531 L 1201.503906 739.519531 L 1201.503906 760.476562 L 1180.546875 760.476562 Z M 1180.546875 739.519531 " clip-rule="nonzero"/></clipPath><clipPath id="ef0e5e180e"><path d="M 1191.027344 739.519531 C 1185.238281 739.519531 1180.546875 744.210938 1180.546875 750 C 1180.546875 755.785156 1185.238281 760.476562 1191.027344 760.476562 C 1196.8125 760.476562 1201.503906 755.785156 1201.503906 750 C 1201.503906 744.210938 1196.8125 739.519531 1191.027344 739.519531 Z M 1191.027344 739.519531 " clip-rule="nonzero"/></clipPath><clipPath id="e3f2ca55a9"><path d="M 0.546875 0.519531 L 21.503906 0.519531 L 21.503906 21.476562 L 0.546875 21.476562 Z M 0.546875 0.519531 " clip-rule="nonzero"/></clipPath><clipPath id="274e835502"><path d="M 11.027344 0.519531 C 5.238281 0.519531 0.546875 5.210938 0.546875 11 C 0.546875 16.785156 5.238281 21.476562 11.027344 21.476562 C 16.8125 21.476562 21.503906 16.785156 21.503906 11 C 21.503906 5.210938 16.8125 0.519531 11.027344 0.519531 Z M 11.027344 0.519531 " clip-rule="nonzero"/></clipPath><clipPath id="b5b6e0b564"><rect x="0" width="22" y="0" height="22"/></clipPath><clipPath id="8b6dda5ff3"><rect x="0" width="992" y="0" height="484"/></clipPath><clipPath id="149d47e4a0"><rect x="0" width="906" y="0" height="383"/></clipPath><clipPath id="162c49a8b8"><path d="M 484.453125 475.378906 L 1015.453125 475.378906 L 1015.453125 1003.378906 L 484.453125 1003.378906 Z M 484.453125 475.378906 " clip-rule="nonzero"/></clipPath></defs><rect x="-150" width="1800" fill="#ffffff" y="-149.999993" height="1799.99992" fill-opacity="1"/><rect x="-150" width="1800" fill="#ffffff" y="-149.999993" height="1799.99992" fill-opacity="1"/><g clip-path="url(#b565c46e88)"><g clip-path="url(#0b0fec8371)"><g transform="matrix(1, 0, 0, 1, 216, 216)"><g clip-path="url(#364aed99bb)"><g clip-path="url(#3735021531)"><g clip-path="url(#27dffd2d9a)"><path fill="#ffffff" d="M 0.910156 0.910156 L 1067.089844 0.910156 L 1067.089844 1067.089844 L 0.910156 1067.089844 Z M 0.910156 0.910156 " fill-opacity="1" fill-rule="nonzero"/></g></g></g></g></g></g><g clip-path="url(#724a1db64c)"><g clip-path="url(#9821e61bbb)"><path stroke-linecap="butt" transform="matrix(0.75, 0, 0, 0.75, 216.91128, 216.911227)" fill="none" stroke-linejoin="miter" d="M 710.779813 -0.00142756 C 318.227695 -0.00142756 -0.00149869 318.227767 -0.00149869 710.779884 C -0.00149869 1103.337209 318.227695 1421.561195 710.779813 1421.561195 C 1103.337138 1421.561195 1421.561124 1103.337209 1421.561124 710.779884 C 1421.561124 318.227767 1103.337138 -0.00142756 710.779813 -0.00142756 Z M 710.779813 -0.00142756 " stroke="#594a47" stroke-width="20" stroke-opacity="1" stroke-miterlimit="4"/></g></g><g clip-path="url(#cae6e182a2)"><g clip-path="url(#988cc8af7b)"><g transform="matrix(1, 0, 0, 1, 297, 739)"><g clip-path="url(#d34b82ce5a)"><g clip-path="url(#3766a1c7c5)"><g clip-path="url(#c862d0918a)"><path fill="#594a47" d="M 0.0859375 0.519531 L 21.042969 0.519531 L 21.042969 21.476562 L 0.0859375 21.476562 Z M 0.0859375 0.519531 " fill-opacity="1" fill-rule="nonzero"/></g></g></g></g></g></g><g clip-path="url(#7fc630e0e8)"><g clip-path="url(#ef0e5e180e)"><g transform="matrix(1, 0, 0, 1, 1180, 739)"><g clip-path="url(#b5b6e0b564)"><g clip-path="url(#e3f2ca55a9)"><g clip-path="url(#274e835502)"><path fill="#594a47" d="M 0.546875 0.519531 L 21.503906 0.519531 L 21.503906 21.476562 L 0.546875 21.476562 Z M 0.546875 0.519531 " fill-opacity="1" fill-rule="nonzero"/></g></g></g></g></g></g><g transform="matrix(1, 0, 0, 1, 254, 254)"><g clip-path="url(#8b6dda5ff3)"><g fill="#2c2a27" fill-opacity="1"><g transform="translate(85.042231, 480.798253)"><g><path d="M -28.828125 -8.015625 L -31.171875 -8.328125 C -37.304688 -9.117188 -42.460938 -11.09375 -46.640625 -14.25 C -50.828125 -17.414062 -53.84375 -21.597656 -55.6875 -26.796875 C -57.539062 -32.003906 -58.015625 -38.066406 -57.109375 -44.984375 C -56.253906 -51.515625 -54.5 -56.898438 -51.84375 -61.140625 C -49.195312 -65.390625 -45.847656 -68.566406 -41.796875 -70.671875 C -37.753906 -72.785156 -33.269531 -73.832031 -28.34375 -73.8125 L -29.390625 -65.78125 C -34.960938 -65.613281 -39.59375 -63.78125 -43.28125 -60.28125 C -46.976562 -56.789062 -49.300781 -51.394531 -50.25 -44.09375 C -51.300781 -36.0625 -50.039062 -29.648438 -46.46875 -24.859375 C -42.894531 -20.078125 -37.425781 -17.207031 -30.0625 -16.25 L -27.875 -15.96875 C -20.507812 -15.007812 -14.488281 -16.378906 -9.8125 -20.078125 C -5.132812 -23.785156 -2.269531 -29.65625 -1.21875 -37.6875 C -0.269531 -44.988281 -1.15625 -50.804688 -3.875 -55.140625 C -6.59375 -59.472656 -10.578125 -62.429688 -15.828125 -64.015625 L -14.78125 -72.046875 C -10 -70.804688 -5.9375 -68.644531 -2.59375 -65.5625 C 0.75 -62.488281 3.171875 -58.554688 4.671875 -53.765625 C 6.179688 -48.984375 6.507812 -43.328125 5.65625 -36.796875 C 4.75 -29.878906 2.738281 -24.140625 -0.375 -19.578125 C -3.5 -15.023438 -7.5 -11.757812 -12.375 -9.78125 C -17.257812 -7.8125 -22.742188 -7.222656 -28.828125 -8.015625 Z M -28.828125 -8.015625 "/></g></g></g><g fill="#2c2a27" fill-opacity="1"><g transform="translate(95.101232, 406.731597)"><g><path d="M -47.765625 -53.609375 L 19.6875 -62.8125 L 17.109375 -54.59375 L -1.328125 -52.234375 L -10.96875 -21.484375 L 2.84375 -9.09375 L 0.296875 -0.96875 L -49.9375 -46.6875 Z M -8.8125 -51.234375 L -39.671875 -47.28125 L -16.5625 -26.5 Z M -8.8125 -51.234375 "/></g></g></g><g fill="#2c2a27" fill-opacity="1"><g transform="translate(116.031451, 341.389174)"><g><path d="M -30.078125 -77.84375 L -23.875 -74.75 L -42.21875 -37.890625 L -23.9375 -28.796875 L -7.140625 -62.5625 L -0.953125 -59.484375 L -17.75 -25.71875 L 6.734375 -13.53125 L 3.1875 -6.421875 L -51.96875 -33.875 Z M -30.078125 -77.84375 "/></g></g></g><g fill="#2c2a27" fill-opacity="1"><g transform="translate(143.420893, 286.46228)"><g><path d="M 33.8125 -47.921875 L 4.140625 -5.859375 L -46.203125 -41.375 L -17.453125 -82.125 L -11.796875 -78.140625 L -35.984375 -43.875 L -19.640625 -32.34375 L 2.5 -63.71875 L 8.15625 -59.71875 L -13.984375 -28.34375 L 3.046875 -16.328125 L 28.15625 -51.90625 Z M 33.8125 -47.921875 "/></g></g></g><g fill="#2c2a27" fill-opacity="1"><g transform="translate(180.183272, 234.335956)"><g><path d="M -18.84375 -58.9375 L -37.15625 -40.21875 L -42.109375 -45.0625 L 0.03125 -88.15625 L 4.984375 -83.3125 L -13.3125 -64.59375 L 25.78125 -26.359375 L 20.25 -20.703125 Z M -18.84375 -58.9375 "/></g></g></g><g fill="#2c2a27" fill-opacity="1"><g transform="translate(227.628539, 186.238328)"><g><path d="M 47.171875 -34.875 L 5.765625 -4.265625 L -30.859375 -53.8125 L 9.25 -83.453125 L 13.359375 -77.875 L -20.359375 -52.953125 L -8.46875 -36.875 L 22.390625 -59.6875 L 26.515625 -54.125 L -4.34375 -31.3125 L 8.046875 -14.546875 L 43.0625 -40.4375 Z M 47.171875 -34.875 "/></g></g></g><g fill="#2c2a27" fill-opacity="1"><g transform="translate(278.74315, 148.25764)"><g><path d="M 47.84375 -42.46875 L 51.640625 -35.03125 C 52.410156 -33.53125 53.238281 -32.34375 54.125 -31.46875 C 55.019531 -30.601562 56.191406 -29.9375 57.640625 -29.46875 L 49.96875 -25.546875 C 47.6875 -26.535156 45.816406 -28.453125 44.359375 -31.296875 L 40.640625 -38.59375 C 39.304688 -41.195312 38.015625 -43.046875 36.765625 -44.140625 C 35.515625 -45.234375 34.015625 -45.664062 32.265625 -45.4375 C 30.515625 -45.21875 28.257812 -44.40625 25.5 -43 L 1.3125 -30.625 L 13.453125 -6.875 L 6.390625 -3.265625 L -21.65625 -58.125 L 9 -73.796875 C 13.445312 -76.078125 17.46875 -77.3125 21.0625 -77.5 C 24.664062 -77.695312 27.765625 -77.050781 30.359375 -75.5625 C 32.960938 -74.082031 34.976562 -71.941406 36.40625 -69.140625 C 37.769531 -66.484375 38.300781 -63.925781 38 -61.46875 C 37.707031 -59.007812 36.921875 -56.804688 35.640625 -54.859375 C 34.359375 -52.910156 32.910156 -51.300781 31.296875 -50.03125 L 31.375 -49.890625 C 34.78125 -51.117188 37.84375 -51.226562 40.5625 -50.21875 C 43.289062 -49.207031 45.71875 -46.625 47.84375 -42.46875 Z M -1.84375 -36.78125 L 21.375 -48.65625 C 26.070312 -51.0625 28.988281 -53.628906 30.125 -56.359375 C 31.257812 -59.085938 31.097656 -61.878906 29.640625 -64.734375 C 28.148438 -67.640625 25.988281 -69.425781 23.15625 -70.09375 C 20.332031 -70.757812 16.585938 -69.898438 11.921875 -67.515625 L -11.4375 -55.5625 Z M -1.84375 -36.78125 "/></g></g></g><g fill="#2c2a27" fill-opacity="1"><g transform="translate(343.76869, 116.761757)"><g><path d="M -7.078125 -63.0625 L 14.25 -5.265625 L 6.796875 -2.515625 L -14.53125 -60.3125 Z M -7.078125 -63.0625 "/></g></g></g><g fill="#2c2a27" fill-opacity="1"><g transform="translate(367.375221, 106.867431)"><g><path d="M 21.359375 -68.546875 L 63.984375 -15.484375 L 55.609375 -13.453125 L 44.09375 -28.03125 L 12.765625 -20.453125 L 9.265625 -2.234375 L 0.984375 -0.234375 L 14.3125 -66.84375 Z M 39.375 -33.921875 L 20.09375 -58.34375 L 14.1875 -27.828125 Z M 39.375 -33.921875 "/></g></g></g><g fill="#2c2a27" fill-opacity="1"><g transform="translate(435.204805, 91.774078)"><g/></g></g><g fill="#2c2a27" fill-opacity="1"><g transform="translate(468.880159, 85.973943)"><g><path d="M 45.328125 -9.28125 L 75.40625 -58.4375 L 85.1875 -58.015625 L 82.546875 3.53125 L 74.703125 3.203125 L 76.84375 -46.625 L 46.953125 2.015625 L 42.734375 1.828125 L 17.265625 -49.953125 L 15.09375 0.640625 L 7.171875 0.3125 L 9.8125 -61.234375 L 20.09375 -60.796875 Z M 45.328125 -9.28125 "/></g></g></g><g fill="#2c2a27" fill-opacity="1"><g transform="translate(559.335587, 91.034256)"><g><path d="M 50.234375 -51.3125 L 64.015625 15.359375 L 55.640625 13.34375 L 52.03125 -4.875 L 20.6875 -12.390625 L 9.265625 2.21875 L 0.984375 0.234375 L 43.1875 -53 Z M 50.5 -12.28125 L 44.453125 -42.796875 L 25.3125 -18.3125 Z M 50.5 -12.28125 "/></g></g></g><g fill="#2c2a27" fill-opacity="1"><g transform="translate(625.767739, 106.983003)"><g><path d="M 63.25 9.65625 L 59.953125 17.34375 C 59.296875 18.894531 58.914062 20.285156 58.8125 21.515625 C 58.707031 22.753906 58.9375 24.082031 59.5 25.5 L 51.59375 22.109375 C 50.882812 19.722656 51.160156 17.0625 52.421875 14.125 L 55.65625 6.59375 C 56.800781 3.90625 57.394531 1.726562 57.4375 0.0625 C 57.476562 -1.601562 56.851562 -3.035156 55.5625 -4.234375 C 54.269531 -5.429688 52.203125 -6.640625 49.359375 -7.859375 L 24.390625 -18.5625 L 13.890625 5.953125 L 6.59375 2.828125 L 30.859375 -53.796875 L 62.515625 -40.234375 C 67.109375 -38.265625 70.628906 -35.957031 73.078125 -33.3125 C 75.523438 -30.675781 77.007812 -27.882812 77.53125 -24.9375 C 78.050781 -22 77.691406 -19.082031 76.453125 -16.1875 C 75.273438 -13.4375 73.644531 -11.390625 71.5625 -10.046875 C 69.488281 -8.703125 67.289062 -7.898438 64.96875 -7.640625 C 62.65625 -7.378906 60.492188 -7.46875 58.484375 -7.90625 L 58.40625 -7.75 C 61.53125 -5.925781 63.578125 -3.640625 64.546875 -0.890625 C 65.523438 1.847656 65.09375 5.363281 63.25 9.65625 Z M 27.125 -24.921875 L 51.09375 -14.65625 C 55.945312 -12.570312 59.78125 -11.96875 62.59375 -12.84375 C 65.414062 -13.71875 67.460938 -15.628906 68.734375 -18.578125 C 70.015625 -21.566406 70.003906 -24.363281 68.703125 -26.96875 C 67.398438 -29.582031 64.34375 -31.921875 59.53125 -33.984375 L 35.421875 -44.3125 Z M 27.125 -24.921875 "/></g></g></g><g fill="#2c2a27" fill-opacity="1"><g transform="translate(691.542667, 136.881718)"><g><path d="M 43.96875 -45.75 L 13.15625 7.59375 L 6.28125 3.625 L 37.09375 -49.71875 Z M 43.96875 -45.75 "/></g></g></g><g fill="#2c2a27" fill-opacity="1"><g transform="translate(714.241949, 148.71161)"><g><path d="M 66.375 -27.375 L 52.796875 39.3125 L 45.890625 34.171875 L 49.734375 16 L 23.890625 -3.25 L 7.640625 5.6875 L 0.8125 0.609375 L 60.5625 -31.71875 Z M 51.265625 8.609375 L 57.71875 -21.828125 L 30.484375 -6.859375 Z M 51.265625 8.609375 "/></g></g></g><g fill="#2c2a27" fill-opacity="1"><g transform="translate(769.205172, 191.223363)"><g/></g></g><g fill="#2c2a27" fill-opacity="1"><g transform="translate(794.961428, 214.270306)"><g><path d="M 22.5 29.875 C 18.144531 24.351562 15.414062 18.875 14.3125 13.4375 C 13.207031 8 13.648438 2.847656 15.640625 -2.015625 C 17.640625 -6.890625 21.050781 -11.226562 25.875 -15.03125 L 27.71875 -16.484375 C 32.582031 -20.316406 37.601562 -22.628906 42.78125 -23.421875 C 47.96875 -24.210938 53.078125 -23.4375 58.109375 -21.09375 C 63.148438 -18.757812 67.847656 -14.832031 72.203125 -9.3125 C 76.585938 -3.75 79.316406 1.738281 80.390625 7.15625 C 81.472656 12.570312 81.023438 17.707031 79.046875 22.5625 C 77.066406 27.425781 73.644531 31.773438 68.78125 35.609375 L 66.9375 37.0625 C 62.113281 40.863281 57.101562 43.164062 51.90625 43.96875 C 46.707031 44.769531 41.601562 44.007812 36.59375 41.6875 C 31.582031 39.375 26.882812 35.4375 22.5 29.875 Z M 27.921875 25.59375 C 32.992188 32.039062 38.488281 35.65625 44.40625 36.4375 C 50.332031 37.21875 56.210938 35.3125 62.046875 30.71875 L 63.78125 29.359375 C 69.644531 24.722656 72.875 19.445312 73.46875 13.53125 C 74.070312 7.613281 71.835938 1.429688 66.765625 -5.015625 C 61.703125 -11.421875 56.203125 -15.023438 50.265625 -15.828125 C 44.335938 -16.640625 38.460938 -14.742188 32.640625 -10.140625 L 30.90625 -8.78125 C 25.070312 -4.1875 21.847656 1.085938 21.234375 7.046875 C 20.628906 13.003906 22.859375 19.1875 27.921875 25.59375 Z M 27.921875 25.59375 "/></g></g></g><g fill="#2c2a27" fill-opacity="1"><g transform="translate(841.512742, 274.843502)"><g><path d="M 25.453125 46 L 3.46875 6.28125 L 57.375 -23.546875 L 61.21875 -16.609375 L 13.375 9.875 L 31.515625 42.65625 Z M 25.453125 46 "/></g></g></g><g fill="#2c2a27" fill-opacity="1"><g transform="translate(868.946867, 326.528262)"><g><path d="M 62.640625 -10.15625 L 5.953125 13.96875 L 2.84375 6.671875 L 59.53125 -17.453125 Z M 62.640625 -10.15625 "/></g></g></g><g fill="#2c2a27" fill-opacity="1"><g transform="translate(879.958177, 349.672562)"><g><path d="M 19 28.796875 L 75.03125 36.5 L 77.4375 44.609375 L 10.390625 35.125 L 8.34375 28.25 L 59.359375 -16.5 L 61.828125 -8.15625 Z M 19 28.796875 "/></g></g></g><g fill="#2c2a27" fill-opacity="1"><g transform="translate(898.967691, 414.267566)"><g><path d="M 65.65625 29.078125 L 8.03125 65.34375 L 6.96875 56.796875 L 22.78125 47.015625 L 18.84375 15.03125 L 1.15625 9.453125 L 0.125 1.015625 L 64.765625 21.890625 Z M 29.1875 43.015625 L 55.640625 26.65625 L 26.03125 17.296875 Z M 29.1875 43.015625 "/></g></g></g></g></g><g transform="matrix(1, 0, 0, 1, 296, 836)"><g clip-path="url(#149d47e4a0)"><g fill="#2c2a27" fill-opacity="1"><g transform="translate(14.992398, 13.834115)"><g><path d="M 4.984375 20.84375 C 4.078125 17.375 4.03125 14.039062 4.84375 10.84375 C 5.65625 7.644531 7.203125 4.898438 9.484375 2.609375 C 11.773438 0.328125 14.601562 -1.25 17.96875 -2.125 C 21.351562 -3 24.597656 -2.988281 27.703125 -2.09375 C 30.816406 -1.207031 33.503906 0.441406 35.765625 2.859375 C 38.035156 5.273438 39.625 8.222656 40.53125 11.703125 C 41.226562 14.410156 41.410156 17.003906 41.078125 19.484375 C 40.753906 21.972656 39.898438 24.238281 38.515625 26.28125 L 34.578125 23.875 C 36.640625 20.550781 37.164062 16.941406 36.15625 13.046875 C 35.488281 10.460938 34.300781 8.273438 32.59375 6.484375 C 30.894531 4.703125 28.878906 3.484375 26.546875 2.828125 C 24.210938 2.179688 21.785156 2.1875 19.265625 2.84375 C 16.753906 3.5 14.628906 4.675781 12.890625 6.375 C 11.160156 8.082031 9.988281 10.125 9.375 12.5 C 8.769531 14.882812 8.800781 17.367188 9.46875 19.953125 C 10.46875 23.816406 12.695312 26.710938 16.15625 28.640625 L 13.859375 32.671875 C 11.660156 31.554688 9.804688 29.988281 8.296875 27.96875 C 6.785156 25.945312 5.679688 23.570312 4.984375 20.84375 Z M 4.984375 20.84375 "/></g></g></g><g fill="#2c2a27" fill-opacity="1"><g transform="translate(34.111787, 78.563949)"><g><path d="M 19.375 22.4375 L 11.859375 4.90625 L 2.0625 4.8125 L -0.015625 -0.046875 L 39.359375 0.765625 L 41.359375 5.4375 L 14.796875 34.546875 L 12.671875 29.59375 Z M 22.4375 19.15625 L 35.5625 5.140625 L 16.328125 4.921875 Z M 22.4375 19.15625 "/></g></g></g><g fill="#2c2a27" fill-opacity="1"><g transform="translate(63.009331, 139.967666)"><g><path d="M 32.28125 -7.484375 L 21.625 -0.953125 L 31.03125 14.375 L 27.28125 16.6875 L 17.875 1.359375 L 5.5 8.953125 L 2.828125 4.59375 L 33.40625 -14.1875 L 46.640625 7.375 L 42.84375 9.71875 Z M 32.28125 -7.484375 "/></g></g></g><g fill="#2c2a27" fill-opacity="1"><g transform="translate(97.65674, 192.392809)"><g><path d="M 23.5 21.328125 L 20.078125 24.171875 L 3.4375 4.140625 L 31.046875 -18.796875 L 47.21875 0.6875 L 43.78125 3.546875 L 30.890625 -11.984375 L 22.421875 -4.9375 L 33.90625 8.890625 L 30.546875 11.671875 L 19.0625 -2.15625 L 10.140625 5.25 Z M 48.546875 -12.71875 L 52.53125 -7.921875 L 41.90625 -10.28125 L 38.96875 -13.828125 Z M 48.546875 -12.71875 "/></g></g></g><g fill="#2c2a27" fill-opacity="1"><g transform="translate(140.548665, 240.227446)"><g/></g></g><g fill="#2c2a27" fill-opacity="1"><g transform="translate(173.161479, 269.635078)"><g><path d="M 25.421875 -25.90625 L 37.65625 -17.03125 C 40.738281 -14.800781 43.023438 -12.210938 44.515625 -9.265625 C 46.003906 -6.328125 46.609375 -3.28125 46.328125 -0.125 C 46.054688 3.03125 44.890625 6.03125 42.828125 8.875 C 40.753906 11.726562 38.265625 13.773438 35.359375 15.015625 C 32.453125 16.265625 29.367188 16.632812 26.109375 16.125 C 22.847656 15.625 19.675781 14.257812 16.59375 12.03125 L 4.359375 3.15625 Z M 18.96875 8.25 C 21.320312 9.957031 23.722656 11 26.171875 11.375 C 28.617188 11.757812 30.921875 11.476562 33.078125 10.53125 C 35.242188 9.59375 37.113281 8.039062 38.6875 5.875 C 40.25 3.71875 41.140625 1.46875 41.359375 -0.875 C 41.578125 -3.226562 41.125 -5.503906 40 -7.703125 C 38.882812 -9.910156 37.148438 -11.867188 34.796875 -13.578125 L 26.953125 -19.265625 L 11.125 2.5625 Z M 18.96875 8.25 "/></g></g></g><g fill="#2c2a27" fill-opacity="1"><g transform="translate(233.615885, 310.189711)"><g><path d="M 30 10.359375 L 27.96875 14.328125 L 4.796875 2.453125 L 21.15625 -29.484375 L 43.6875 -17.9375 L 41.65625 -13.96875 L 23.6875 -23.171875 L 18.671875 -13.359375 L 34.671875 -5.15625 L 32.671875 -1.28125 L 16.671875 -9.484375 L 11.390625 0.828125 Z M 30 10.359375 "/></g></g></g><g fill="#2c2a27" fill-opacity="1"><g transform="translate(291.86564, 337.304141)"><g/></g></g><g fill="#2c2a27" fill-opacity="1"><g transform="translate(333.313868, 351.306527)"><g><path d="M 31.609375 2.90625 L 30.578125 7.234375 L 5.25 1.234375 L 13.515625 -33.6875 L 38.140625 -27.859375 L 37.109375 -23.515625 L 17.46875 -28.15625 L 14.9375 -17.4375 L 32.4375 -13.296875 L 31.421875 -9.046875 L 13.921875 -13.1875 L 11.265625 -1.90625 Z M 31.609375 2.90625 "/></g></g></g><g fill="#2c2a27" fill-opacity="1"><g transform="translate(396.665789, 363.997367)"><g><path d="M 15.75 1.84375 C 13.0625 1.59375 10.5 0.941406 8.0625 -0.109375 C 5.632812 -1.171875 3.769531 -2.429688 2.46875 -3.890625 L 4.71875 -7.703125 C 5.957031 -6.347656 7.609375 -5.191406 9.671875 -4.234375 C 11.734375 -3.285156 13.890625 -2.707031 16.140625 -2.5 C 19.097656 -2.226562 21.347656 -2.523438 22.890625 -3.390625 C 24.441406 -4.265625 25.296875 -5.535156 25.453125 -7.203125 C 25.566406 -8.429688 25.257812 -9.460938 24.53125 -10.296875 C 23.800781 -11.140625 22.867188 -11.816406 21.734375 -12.328125 C 20.597656 -12.835938 18.984375 -13.453125 16.890625 -14.171875 C 14.253906 -15.054688 12.140625 -15.894531 10.546875 -16.6875 C 8.960938 -17.488281 7.640625 -18.613281 6.578125 -20.0625 C 5.523438 -21.519531 5.101562 -23.390625 5.3125 -25.671875 C 5.488281 -27.566406 6.144531 -29.234375 7.28125 -30.671875 C 8.425781 -32.117188 10.0625 -33.207031 12.1875 -33.9375 C 14.320312 -34.675781 16.90625 -34.90625 19.9375 -34.625 C 22.039062 -34.4375 24.085938 -33.976562 26.078125 -33.25 C 28.078125 -32.519531 29.765625 -31.578125 31.140625 -30.421875 L 29.078125 -26.484375 C 27.671875 -27.578125 26.132812 -28.445312 24.46875 -29.09375 C 22.8125 -29.75 21.171875 -30.148438 19.546875 -30.296875 C 16.648438 -30.554688 14.429688 -30.222656 12.890625 -29.296875 C 11.347656 -28.378906 10.5 -27.085938 10.34375 -25.421875 C 10.226562 -24.203125 10.539062 -23.164062 11.28125 -22.3125 C 12.03125 -21.46875 12.988281 -20.78125 14.15625 -20.25 C 15.332031 -19.71875 16.929688 -19.117188 18.953125 -18.453125 C 21.597656 -17.566406 23.707031 -16.722656 25.28125 -15.921875 C 26.863281 -15.117188 28.175781 -14.003906 29.21875 -12.578125 C 30.269531 -11.148438 30.695312 -9.3125 30.5 -7.0625 C 30.320312 -5.1875 29.648438 -3.519531 28.484375 -2.0625 C 27.328125 -0.613281 25.671875 0.460938 23.515625 1.171875 C 21.367188 1.890625 18.78125 2.113281 15.75 1.84375 Z M 15.75 1.84375 "/></g></g></g><g fill="#2c2a27" fill-opacity="1"><g transform="translate(458.721371, 367.621934)"><g><path d="M 17.40625 -36.890625 C 22.050781 -37.140625 25.765625 -36.222656 28.546875 -34.140625 C 31.328125 -32.054688 32.820312 -29.070312 33.03125 -25.1875 C 33.25 -21.289062 32.082031 -18.164062 29.53125 -15.8125 C 26.988281 -13.457031 23.394531 -12.15625 18.75 -11.90625 L 9.90625 -11.421875 L 10.5 -0.5625 L 5.375 -0.296875 L 3.4375 -36.140625 Z M 18.359375 -16.34375 C 21.609375 -16.519531 24.046875 -17.34375 25.671875 -18.8125 C 27.304688 -20.289062 28.050781 -22.328125 27.90625 -24.921875 C 27.769531 -27.503906 26.8125 -29.441406 25.03125 -30.734375 C 23.257812 -32.023438 20.75 -32.582031 17.5 -32.40625 L 8.8125 -31.9375 L 9.671875 -15.875 Z M 18.359375 -16.34375 "/></g></g></g><g fill="#2c2a27" fill-opacity="1"><g transform="translate(525.833077, 361.657075)"><g><path d="M 29.890625 -10.640625 L 30.78125 -6.28125 L 5.28125 -1.078125 L -1.90625 -36.25 L 22.890625 -41.3125 L 23.796875 -36.921875 L 4.015625 -32.890625 L 6.21875 -22.109375 L 23.84375 -25.703125 L 24.71875 -21.421875 L 7.09375 -17.828125 L 9.40625 -6.46875 Z M 29.890625 -10.640625 "/></g></g></g><g fill="#2c2a27" fill-opacity="1"><g transform="translate(588.780177, 346.621544)"><g><path d="M 20.265625 -6.953125 C 16.898438 -5.722656 13.585938 -5.359375 10.328125 -5.859375 C 7.078125 -6.359375 4.203125 -7.640625 1.703125 -9.703125 C -0.785156 -11.765625 -2.628906 -14.429688 -3.828125 -17.703125 C -5.015625 -20.984375 -5.3125 -24.207031 -4.71875 -27.375 C -4.132812 -30.550781 -2.75 -33.382812 -0.5625 -35.875 C 1.625 -38.363281 4.40625 -40.222656 7.78125 -41.453125 C 10.414062 -42.410156 12.984375 -42.84375 15.484375 -42.75 C 17.984375 -42.664062 20.316406 -42.035156 22.484375 -40.859375 L 20.453125 -36.703125 C 16.953125 -38.441406 13.304688 -38.625 9.515625 -37.25 C 7.015625 -36.332031 4.957031 -34.941406 3.34375 -33.078125 C 1.738281 -31.210938 0.722656 -29.085938 0.296875 -26.703125 C -0.117188 -24.316406 0.113281 -21.898438 1 -19.453125 C 1.894531 -17.015625 3.269531 -15.015625 5.125 -13.453125 C 6.988281 -11.890625 9.132812 -10.914062 11.5625 -10.53125 C 13.988281 -10.144531 16.453125 -10.410156 18.953125 -11.328125 C 22.710938 -12.691406 25.382812 -15.1875 26.96875 -18.8125 L 31.1875 -16.921875 C 30.289062 -14.628906 28.90625 -12.632812 27.03125 -10.9375 C 25.164062 -9.238281 22.910156 -7.910156 20.265625 -6.953125 Z M 20.265625 -6.953125 "/></g></g></g><g fill="#2c2a27" fill-opacity="1"><g transform="translate(650.8679, 321.291885)"><g><path d="M -11.625 -34.375 L -7.078125 -36.71875 L 9.34375 -4.8125 L 4.796875 -2.46875 Z M -11.625 -34.375 "/></g></g></g><g fill="#2c2a27" fill-opacity="1"><g transform="translate(691.158574, 299.197457)"><g><path d="M 18.203125 -23.390625 L 2.484375 -12.578125 L 4.3125 -2.96875 L -0.03125 0.03125 L -6.96875 -38.75 L -2.78125 -41.625 L 30.96875 -21.28125 L 26.53125 -18.234375 Z M 14.390625 -25.765625 L -1.9375 -35.859375 L 1.640625 -17 Z M 14.390625 -25.765625 "/></g></g></g><g fill="#2c2a27" fill-opacity="1"><g transform="translate(745.638686, 258.807844)"><g><path d="M -20.390625 -30.03125 L -16.625 -33.515625 L 4.703125 -10.40625 L 18.984375 -23.578125 L 22 -20.3125 L 3.953125 -3.65625 Z M -20.390625 -30.03125 "/></g></g></g><g fill="#2c2a27" fill-opacity="1"><g transform="translate(788.43593, 216.284841)"><g><path d="M -23.796875 -27.390625 L -20.46875 -31.296875 L 6.828125 -8 L 3.5 -4.09375 Z M -23.796875 -27.390625 "/></g></g></g><g fill="#2c2a27" fill-opacity="1"><g transform="translate(817.481582, 180.552585)"><g><path d="M -27.203125 -24.03125 L -18.984375 -36.71875 C -16.921875 -39.90625 -14.460938 -42.320312 -11.609375 -43.96875 C -8.753906 -45.613281 -5.742188 -46.378906 -2.578125 -46.265625 C 0.585938 -46.148438 3.648438 -45.140625 6.609375 -43.234375 C 9.566406 -41.316406 11.738281 -38.9375 13.125 -36.09375 C 14.519531 -33.257812 15.050781 -30.203125 14.71875 -26.921875 C 14.394531 -23.640625 13.203125 -20.40625 11.140625 -17.21875 L 2.921875 -4.53125 Z M 7.234375 -19.390625 C 8.816406 -21.828125 9.734375 -24.273438 9.984375 -26.734375 C 10.234375 -29.203125 9.828125 -31.488281 8.765625 -33.59375 C 7.710938 -35.707031 6.066406 -37.488281 3.828125 -38.9375 C 1.585938 -40.382812 -0.707031 -41.15625 -3.0625 -41.25 C -5.425781 -41.351562 -7.675781 -40.785156 -9.8125 -39.546875 C -11.957031 -38.304688 -13.820312 -36.46875 -15.40625 -34.03125 L -20.65625 -25.890625 L 1.984375 -11.25 Z M 7.234375 -19.390625 "/></g></g></g><g fill="#2c2a27" fill-opacity="1"><g transform="translate(854.863915, 118.013414)"><g><path d="M 3.234375 -29.453125 L -4.484375 -12.015625 L 2.125 -4.78125 L -0.015625 0.046875 L -26.25 -29.34375 L -24.1875 -33.984375 L 15.21875 -34.359375 L 13.03125 -29.4375 Z M -1.234375 -29.484375 L -20.453125 -29.515625 L -7.515625 -15.328125 Z M -1.234375 -29.484375 "/></g></g></g><g fill="#2c2a27" fill-opacity="1"><g transform="translate(880.384416, 54.910753)"><g><path d="M -33.296875 -14.40625 L -29.421875 -29.015625 C -28.453125 -32.691406 -26.863281 -35.753906 -24.65625 -38.203125 C -22.445312 -40.660156 -19.816406 -42.320312 -16.765625 -43.1875 C -13.722656 -44.0625 -10.503906 -44.050781 -7.109375 -43.15625 C -3.703125 -42.25 -0.894531 -40.660156 1.3125 -38.390625 C 3.519531 -36.128906 4.972656 -33.382812 5.671875 -30.15625 C 6.367188 -26.9375 6.234375 -23.488281 5.265625 -19.8125 L 1.390625 -5.203125 Z M 0.890625 -20.671875 C 1.628906 -23.472656 1.734375 -26.082031 1.203125 -28.5 C 0.679688 -30.925781 -0.40625 -32.976562 -2.0625 -34.65625 C -3.71875 -36.332031 -5.835938 -37.515625 -8.421875 -38.203125 C -10.992188 -38.878906 -13.414062 -38.898438 -15.6875 -38.265625 C -17.96875 -37.640625 -19.9375 -36.40625 -21.59375 -34.5625 C -23.25 -32.71875 -24.445312 -30.394531 -25.1875 -27.59375 L -27.671875 -18.21875 L -1.59375 -11.296875 Z M 0.890625 -20.671875 "/></g></g></g></g></g><path fill="#ab876f" d="M 910.003906 985.980469 C 865.855469 993.875 810.324219 998.578125 749.996094 998.578125 C 606.179688 998.578125 489.597656 971.851562 489.597656 938.882812 C 489.597656 918.078125 536.035156 899.757812 606.449219 889.070312 C 632.40625 919.261719 679.117188 947.371094 759.722656 947.371094 C 824.5625 947.371094 865.183594 922.503906 890.4375 888.605469 C 962.589844 899.214844 1010.398438 917.769531 1010.398438 938.878906 C 1010.398438 958.023438 971.109375 975.058594 910.003906 985.980469 Z M 910.003906 985.980469 " fill-opacity="1" fill-rule="nonzero"/><g clip-path="url(#162c49a8b8)"><path fill="#2c2a27" d="M 979.902344 905.089844 C 960.113281 896.878906 932.136719 889.8125 898.6875 884.554688 C 907.804688 870.886719 915.285156 855.199219 921.015625 837.703125 C 927.390625 818.226562 931.621094 796.464844 933.59375 773.03125 C 936.941406 733.207031 932.660156 702.722656 932.480469 701.445312 C 932.136719 699.03125 929.894531 697.355469 927.480469 697.703125 C 925.070312 698.050781 923.390625 700.289062 923.738281 702.703125 C 923.785156 703.003906 928.058594 733.460938 924.796875 772.292969 C 921.800781 807.933594 911.648438 858.011719 880.296875 894.1875 C 852.257812 926.550781 811.691406 942.957031 759.730469 942.957031 C 658.65625 942.957031 614.746094 898.214844 596.605469 867.886719 C 596.507812 867.71875 596.417969 867.550781 596.316406 867.378906 C 602.386719 865.65625 609.21875 862.894531 615.601562 859.503906 C 624.234375 854.921875 636.234375 847.019531 644.332031 835.375 C 652.453125 823.703125 654.875 811.003906 651.535156 797.636719 C 648.746094 786.492188 642.207031 779.515625 633.582031 778.492188 C 625.898438 777.578125 617.929688 781.523438 611.355469 789.132812 C 608.601562 780.15625 602.65625 773.253906 594.855469 770.644531 C 585.042969 767.359375 574.511719 771.71875 566.6875 782.300781 C 550.722656 803.898438 568.910156 837.941406 582.066406 860.496094 C 575.371094 860.164062 568.101562 857.6875 560.761719 853.210938 C 529.242188 833.976562 494.910156 787.039062 494.039062 747.8125 C 493.761719 735.203125 495.539062 722.769531 499.042969 712.800781 C 503.148438 701.140625 509.386719 692.90625 517.585938 688.332031 C 524.945312 684.226562 533.984375 683.105469 544.460938 684.996094 C 556.796875 687.226562 571.183594 693.625 587.21875 704.015625 C 602.910156 714.183594 622.957031 722.25 646.800781 727.988281 C 668.691406 733.257812 693.160156 736.445312 719.527344 737.453125 C 725.566406 737.683594 731.625 737.796875 737.699219 737.796875 C 782.15625 737.796875 826.730469 731.652344 862.332031 720.457031 C 887.617188 712.5 919.675781 698.300781 928.808594 675.847656 C 930.949219 670.574219 931.820312 662.632812 923.796875 654.742188 C 914.515625 645.605469 894.796875 638.324219 865.195312 633.101562 C 839.328125 628.535156 806.964844 625.738281 771.609375 625.019531 C 757.894531 624.738281 743.988281 624.789062 730.320312 625.152344 C 733.652344 616.621094 741.503906 610.945312 751.246094 603.902344 C 763.015625 595.394531 777.65625 584.8125 788.0625 565.4375 C 796.210938 550.269531 799.03125 534.316406 796.226562 519.308594 C 793.671875 505.648438 786.585938 493.703125 776.277344 485.679688 C 767.421875 478.789062 757.050781 475.394531 746.28125 475.863281 C 734.675781 476.371094 723.261719 481.464844 713.273438 490.601562 C 704.277344 498.832031 699.445312 508.808594 699.300781 519.445312 C 699.179688 528.503906 702.476562 537.613281 708.585938 545.097656 C 719.417969 558.367188 735.164062 562.273438 746.019531 554.382812 C 747.992188 552.949219 748.429688 550.1875 746.996094 548.214844 C 745.5625 546.242188 742.800781 545.804688 740.824219 547.238281 C 732.960938 552.953125 722.09375 547.679688 715.425781 539.507812 C 707.039062 529.234375 703 511.964844 719.234375 497.121094 C 738.675781 479.335938 758.644531 483.152344 770.847656 492.652344 C 786.566406 504.882812 796.222656 531.570312 780.285156 561.257812 C 770.839844 578.84375 757.683594 588.355469 746.078125 596.746094 C 734.988281 604.757812 724.371094 612.433594 720.925781 625.453125 C 704.296875 626.074219 688.175781 627.167969 673.371094 628.695312 C 641.5 631.988281 616.628906 637.148438 601.441406 643.613281 C 588.714844 649.03125 582.308594 655.660156 582.398438 663.320312 C 582.476562 670.28125 587.210938 676.445312 596.464844 681.636719 C 608.679688 688.484375 628.960938 693.921875 656.753906 697.789062 C 681.445312 701.226562 710.667969 703.1875 741.261719 703.476562 C 790.1875 703.933594 855.363281 699.671875 878.066406 686.148438 C 884.121094 682.542969 887.152344 678.25 887.078125 673.394531 C 887.019531 669.261719 885.476562 665.773438 882.503906 663.03125 C 872.351562 653.671875 846.484375 655.390625 816.535156 657.382812 C 795.316406 658.792969 773.378906 660.25 756.335938 657.796875 C 732.886719 654.417969 729.363281 644.921875 728.753906 638.070312 C 728.628906 636.652344 728.578125 635.304688 728.617188 634.011719 C 742.519531 633.613281 756.898438 633.550781 771.4375 633.847656 C 806.347656 634.5625 838.242188 637.308594 863.667969 641.796875 C 898.304688 647.910156 912.121094 655.632812 917.613281 661.035156 C 921.410156 664.773438 922.347656 668.316406 920.636719 672.519531 C 914.523438 687.558594 892.878906 701.589844 859.695312 712.027344 C 820.164062 724.46875 769.203125 730.515625 719.878906 728.621094 C 666.128906 726.5625 620.726562 715.1875 592.039062 696.601562 C 559.070312 675.234375 532.574219 669.855469 513.296875 680.613281 C 503.164062 686.269531 495.566406 696.109375 490.726562 709.859375 C 485.789062 723.894531 485.011719 738.347656 485.222656 748.003906 C 485.800781 774.066406 498.582031 798.238281 509.195312 813.925781 C 522.496094 833.578125 539.617188 850.640625 556.175781 860.742188 C 566.742188 867.1875 577.445312 870.105469 587.175781 869.191406 C 589.976562 874.1875 593.453125 879.632812 597.738281 885.265625 C 565.457031 890.566406 538.445312 897.566406 519.3125 905.605469 C 496.21875 915.304688 484.507812 926.496094 484.507812 938.867188 C 484.507812 948.945312 492.292969 958.269531 507.648438 966.59375 C 521.167969 973.921875 540.378906 980.46875 564.746094 986.054688 C 614.296875 997.414062 680.089844 1003.667969 750.019531 1003.667969 C 819.945312 1003.667969 885.742188 997.414062 935.289062 986.054688 C 959.65625 980.46875 978.867188 973.921875 992.390625 966.59375 C 1007.742188 958.277344 1015.527344 948.945312 1015.527344 938.867188 C 1015.503906 926.261719 1003.527344 914.890625 979.902344 905.089844 Z M 731.4375 658.507812 C 737.164062 662.449219 744.890625 665.078125 755.0625 666.542969 C 773.023438 669.128906 795.4375 667.640625 817.109375 666.203125 C 831.160156 665.269531 844.4375 664.386719 855.28125 664.730469 C 866.277344 665.074219 873.421875 666.691406 876.503906 669.535156 C 877.675781 670.617188 878.210938 671.851562 878.234375 673.535156 C 878.253906 674.945312 876.539062 676.777344 873.535156 678.570312 C 856.410156 688.765625 803.277344 695.230469 741.332031 694.652344 C 676.324219 694.046875 622.464844 686.109375 600.773438 673.945312 C 596.441406 671.515625 591.265625 667.683594 591.21875 663.226562 C 591.175781 659.652344 596.160156 655.46875 604.886719 651.75 C 626.347656 642.617188 669.484375 636.285156 719.757812 634.316406 C 719.742188 635.769531 719.804688 637.285156 719.945312 638.863281 C 720.683594 647.152344 724.550781 653.761719 731.4375 658.507812 Z M 573.785156 787.558594 C 578.191406 781.59375 583.328125 778.410156 588.320312 778.410156 C 589.574219 778.410156 590.824219 778.613281 592.046875 779.023438 C 599.308594 781.449219 604.308594 790.503906 604.210938 801.035156 C 604.191406 803.074219 605.574219 804.867188 607.554688 805.359375 C 609.535156 805.851562 611.597656 804.929688 612.539062 803.121094 C 617.988281 792.6875 625.835938 786.460938 632.535156 787.261719 C 637.386719 787.835938 641.085938 792.277344 642.957031 799.773438 C 645.65625 810.558594 643.675781 820.839844 637.070312 830.328125 C 625.859375 846.449219 604.195312 856.367188 591.683594 859.449219 C 579.613281 838.933594 560.425781 805.628906 573.785156 787.558594 Z M 987.5 957.628906 C 974.792969 964.519531 956.449219 970.738281 932.988281 976.113281 C 884.164062 987.304688 819.179688 993.464844 750 993.464844 C 680.816406 993.464844 615.828125 987.304688 567.011719 976.113281 C 543.546875 970.734375 525.207031 964.515625 512.496094 957.628906 C 500.859375 951.320312 494.707031 944.839844 494.707031 938.882812 C 494.707031 931.238281 504.84375 922.765625 523.25 915.039062 C 542.800781 906.824219 571.164062 899.703125 605.289062 894.421875 C 630.589844 922.53125 676.847656 951.792969 759.726562 951.792969 C 814.367188 951.792969 857.175781 934.359375 886.972656 899.972656 C 888.6875 897.992188 890.355469 895.957031 891.980469 893.863281 C 926.914062 899.074219 955.945312 906.210938 975.988281 914.527344 C 994.886719 922.371094 1005.292969 931.019531 1005.292969 938.886719 C 1005.285156 944.835938 999.136719 951.320312 987.5 957.628906 Z M 987.5 957.628906 " fill-opacity="1" fill-rule="nonzero"/></g></svg>